<?xml version="1.0" standalone="no"?>
<!DOCTYPE svg PUBLIC "-//W3C//DTD SVG 20010904//EN"
 "http://www.w3.org/TR/2001/REC-SVG-20010904/DTD/svg10.dtd">
<svg version="1.0" xmlns="http://www.w3.org/2000/svg"
 width="700.000000pt" height="700.000000pt" viewBox="0 0 700.000000 700.000000"
 preserveAspectRatio="xMidYMid meet">
<metadata>
Created by potrace 1.11, written by Peter Selinger 2001-2013
</metadata>
<g transform="translate(0.000000,700.000000) scale(0.100000,-0.100000)"
fill="#000000" stroke="none">
<path d="M4588 6661 c-37 -18 -179 -117 -215 -150 -10 -9 -57 -49 -103 -90
-133 -116 -521 -510 -675 -686 -567 -647 -973 -1252 -1175 -1752 -26 -64 -36
-80 -46 -72 -15 12 -22 16 -218 119 -335 176 -726 333 -1189 479 -119 38 -369
99 -472 116 -247 41 -310 10 -172 -86 80 -56 71 -49 156 -120 107 -91 190
-203 253 -344 61 -138 76 -182 193 -575 91 -303 109 -361 186 -591 32 -97 59
-181 59 -186 0 -5 -23 -15 -51 -22 -118 -31 -313 -124 -388 -186 -111 -91
-179 -162 -215 -223 -105 -180 -137 -302 -131 -502 4 -155 7 -172 47 -290 67
-193 217 -378 402 -495 53 -33 96 -63 96 -66 0 -3 -28 -26 -62 -49 -169 -117
-336 -269 -372 -338 -26 -51 -28 -94 -7 -129 24 -38 55 -55 141 -79 97 -26
449 -26 690 1 19 2 60 6 90 9 30 3 66 8 80 10 14 3 48 7 75 11 71 9 116 15
145 20 14 3 43 7 65 10 22 4 65 10 95 15 30 5 71 12 90 15 19 3 85 15 145 26
61 12 121 23 135 25 24 5 360 73 390 79 78 18 200 45 220 49 14 3 52 12 86 20
34 8 72 17 85 20 49 9 439 108 599 152 739 203 1212 378 1457 540 216 143 264
274 184 509 -17 49 -31 95 -31 101 0 6 21 18 48 26 26 9 70 25 97 36 56 21
120 20 165 -3 16 -8 58 -52 94 -96 134 -167 263 -285 389 -357 78 -45 195 -90
257 -98 63 -9 190 -12 190 -5 0 4 -26 19 -57 34 -107 51 -201 117 -277 193
-46 47 -102 132 -112 168 l-6 27 58 -6 c33 -4 70 -8 84 -11 31 -5 288 -6 315
0 11 2 42 7 68 10 61 9 154 44 192 73 l30 22 -45 2 c-25 0 -56 2 -70 4 -14 1
-56 5 -95 9 -87 9 -151 15 -190 20 -175 23 -216 29 -255 41 -25 7 -47 13 -50
13 -3 0 -17 3 -32 7 -25 6 -28 12 -28 47 0 83 40 196 98 281 32 46 124 127
143 127 6 0 8 4 4 10 -3 5 -53 8 -118 6 -179 -6 -297 -45 -375 -124 -24 -24
-45 -42 -47 -40 -13 13 -66 143 -79 195 -17 66 -23 176 -13 235 9 48 35 116
59 151 40 57 5 23 -87 -85 -53 -62 -111 -139 -129 -171 l-34 -59 -10 33 c-71
220 -102 490 -78 663 8 59 42 161 62 190 27 39 14 38 -33 -2 -90 -75 -134
-129 -173 -210 -36 -76 -49 -127 -53 -212 -3 -57 0 -84 18 -176 3 -11 16 -49
29 -85 14 -35 36 -94 50 -131 72 -191 68 -344 -12 -458 -14 -20 -36 -43 -49
-53 -23 -18 -23 -18 -38 20 -30 75 -61 126 -106 172 -59 62 -127 95 -244 116
-5 1 -41 3 -78 3 l-68 2 54 68 c304 378 409 812 322 1332 -25 147 -131 606
-165 715 -5 17 -27 95 -50 175 -22 80 -54 188 -71 240 -16 52 -43 136 -58 185
-16 50 -49 155 -74 235 -93 298 -116 414 -112 585 2 66 6 131 9 145 4 14 9 36
12 49 11 52 54 162 108 272 62 129 70 169 33 169 -12 0 -39 -8 -59 -19z"/>
</g>
</svg>
